# xmcd CD database file
#
# Track frame offsets:
#	150
#	13880
#	30055
#	41274
#	65139
#	79343
#	97602
#	114076
#	129549
#	149126
#	175692
#	189975
#	204775
#	227115
#	248064
#	266961
#	291137
#	307519
#	325425
#	341469
#
# Disc length: 4776 seconds
#
# Revision: 0
# Processed by: cddbd v1.5.2PL0 Copyright (c) Steve Scherf et al.
# Submitted via: Feurio! 1.68 - http://www.feurio.com
#
DISCID=0b12a614
DTITLE=Various Artist - MYSTERY ROAD - Soundtrack
DYEAR=1900
DGENRE=
TTITLE0=GOLD BROTHER - Back From The Fire
TTITLE1=COBI - Prophet Story
TTITLE2=JUSTIN TOWNES EARL - If I Was A Devil
TTITLE3=THE HEAVY - Short Change Hero
TTITLE4=MIRACOULUS MULE - City Of Refuge
TTITLE5=THE WHITE BUFFALO - Last Call To Heaven
TTITLE6=ASH GRUNWALD - The Demon In Me
TTITLE7=ROCCA DeLUCA - Feather And Knife
TTITLE8=TOMMY CASTRO - Anytime Soon
TTITLE9=MOJO RADIO - Bone Shaker
TTITLE10=MARC COHN - Into The Mystic
TTITLE11=IAN SIEGAL - Let My Love
TTITLE12=MARC BROUSSARD - Home
TTITLE13=KATEY SAGAL - Roses And Cigarettes
TTITLE14=BEN HOWARD - The Fear
TTITLE15=RODRIGUEZ - Cause
TTITLE16=ROSE TATTOO - 1854
TTITLE17=RYAN ADAMS - Shake It Off
TTITLE18=MOS GENERATOR - Enter The Fire
TTITLE19=ROBBEN FORD - Howlin' At The Moon
EXTD=
EXTT0=
EXTT1=
EXTT2=
EXTT3=
EXTT4=
EXTT5=
EXTT6=
EXTT7=
EXTT8=
EXTT9=
EXTT10=
EXTT11=
EXTT12=
EXTT13=
EXTT14=
EXTT15=
EXTT16=
EXTT17=
EXTT18=
EXTT19=
PLAYORDER=
